<?xml version="1.0" encoding="UTF-8" standalone="no"?>
<!-- Generator: Gravit.io -->
<svg xmlns="http://www.w3.org/2000/svg" xmlns:xlink="http://www.w3.org/1999/xlink" style="isolation:isolate" viewBox="0 0 64 64" width="64pt" height="64pt">
	<defs>
		<clipPath id="_clipPath_mwoPJQzNoOtYMKD7ODeEDfWk3q2N94af">
			<rect width="64" height="64" />
		</clipPath>
	</defs>
	<g clip-path="url(#_clipPath_mwoPJQzNoOtYMKD7ODeEDfWk3q2N94af)">
		<g style="isolation:isolate">
			<path d=" M 62.09 7 C 62.381 14.491 62.546 18.775 54.434 20.25" fill="none" vector-effect="non-scaling-stroke" stroke-width="1" stroke="rgb(255,0,0)" stroke-linejoin="round" stroke-linecap="round" stroke-miterlimit="3" />
			<path d=" M 54.434 7 C 53.242 12.764 55.748 22.202 51.34 25.875 C 45.983 28.018 36.902 25.301 36.902 32.438" fill="none" vector-effect="non-scaling-stroke" stroke-width="1" stroke="rgb(255,0,0)" stroke-linejoin="round" stroke-linecap="round" stroke-miterlimit="3" />
			<path d=" M 42.09 19 C 47.011 19.218 47.524 21.658 47.777 25.969" fill="none" vector-effect="non-scaling-stroke" stroke-width="1" stroke="rgb(255,0,0)" stroke-linejoin="round" stroke-linecap="round" stroke-miterlimit="3" />
		</g>
		<g style="isolation:isolate">
			<path d=" M 19.863 34.137 C 22.625 33.913 27.512 32.606 32.25 32.59 Q 37.093 32.573 43.699 34.137" fill="none" vector-effect="non-scaling-stroke" stroke-width="1" stroke="rgb(255,0,0)" stroke-linejoin="round" stroke-linecap="round" stroke-miterlimit="3" />
			<path d=" M 52 30 C 46.963 30.53 42.798 34.627 40.228 38.625" fill="none" vector-effect="non-scaling-stroke" stroke-width="1" stroke="rgb(255,0,0)" stroke-linejoin="round" stroke-linecap="round" stroke-miterlimit="3" />
			<path d=" M 52 30 C 48.922 35.744 45.847 38.237 40.313 38.625" fill="none" vector-effect="non-scaling-stroke" stroke-width="1" stroke="rgb(255,0,0)" stroke-linejoin="round" stroke-linecap="round" stroke-miterlimit="3" />
			<path d=" M 40.406 38.625 C 33.363 40.816 40.008 50.451 34.5 55.5 L 34 55.875 Q 33.063 56.32 32 56.25" fill="none" vector-effect="non-scaling-stroke" stroke-width="1" stroke="rgb(255,0,0)" stroke-linejoin="round" stroke-linecap="round" stroke-miterlimit="3" />
			<path d=" M 36.904 50.027 C 37.502 48.064 42.164 40.383 41.156 38.625" fill="none" vector-effect="non-scaling-stroke" stroke-width="1" stroke="rgb(255,0,0)" stroke-linejoin="round" stroke-linecap="round" stroke-miterlimit="3" />
			<path d=" M 30 52 C 31.65 55.35 32.402 54.867 33.68 51.979" fill="none" vector-effect="non-scaling-stroke" stroke-width="1" stroke="rgb(255,0,0)" stroke-linejoin="round" stroke-linecap="round" stroke-miterlimit="3" />
			<line x1="32" y1="54.334" x2="32.027" y2="56.127" vector-effect="non-scaling-stroke" stroke-width="1" stroke="rgb(255,0,0)" stroke-linejoin="round" stroke-linecap="round" stroke-miterlimit="3" />
			<path d=" M 11.625 30 C 16.662 30.53 20.774 34.609 23.344 38.607" fill="none" vector-effect="non-scaling-stroke" stroke-width="1" stroke="rgb(255,0,0)" stroke-linejoin="round" stroke-linecap="round" stroke-miterlimit="3" />
			<path d=" M 11.625 30 C 14.703 35.744 17.778 38.237 23.313 38.625" fill="none" vector-effect="non-scaling-stroke" stroke-width="1" stroke="rgb(255,0,0)" stroke-linejoin="round" stroke-linecap="round" stroke-miterlimit="3" />
			<path d=" M 23.219 38.625 C 30.867 40.535 23.461 50.438 29.125 55.5 Q 29.484 55.688 30 55.875 C 30.516 56.063 30.836 56.25 32 56.25" fill="none" vector-effect="non-scaling-stroke" stroke-width="1" stroke="rgb(255,0,0)" stroke-linejoin="round" stroke-linecap="round" stroke-miterlimit="3" />
			<path d=" M 26.771 50 C 25.928 47.391 21.516 42.188 22.469 38.625" fill="none" vector-effect="non-scaling-stroke" stroke-width="1" stroke="rgb(255,0,0)" stroke-linejoin="round" stroke-linecap="round" stroke-miterlimit="3" />
		</g>
		<g style="isolation:isolate">
			<path d=" M 2 7 C 1.709 14.491 1.544 18.775 9.656 20.25" fill="none" vector-effect="non-scaling-stroke" stroke-width="1" stroke="rgb(255,0,0)" stroke-linejoin="round" stroke-linecap="round" stroke-miterlimit="3" />
			<path d=" M 9.656 7 C 10.848 12.764 8.342 22.202 12.75 25.875 C 18.107 28.018 27.188 25.301 27.188 32.438" fill="none" vector-effect="non-scaling-stroke" stroke-width="1" stroke="rgb(255,0,0)" stroke-linejoin="round" stroke-linecap="round" stroke-miterlimit="3" />
			<path d=" M 22 19 C 17.079 19.218 16.566 21.658 16.313 25.969" fill="none" vector-effect="non-scaling-stroke" stroke-width="1" stroke="rgb(255,0,0)" stroke-linejoin="round" stroke-linecap="round" stroke-miterlimit="3" />
		</g>
	</g>
</svg>
